<svg width="25" height="24" viewBox="0 0 25 24" fill="none" xmlns="http://www.w3.org/2000/svg">
<path d="M21.5 17.25V9H3.5V17.25C3.5 18.2446 3.89509 19.1984 4.59835 19.9016C5.30161 20.6049 6.25544 21 7.25 21H17.75C18.7446 21 19.6984 20.6049 20.4016 19.9016C21.1049 19.1984 21.5 18.2446 21.5 17.25ZM9.4955 12.372C9.4955 12.6698 9.37721 12.9553 9.16665 13.1659C8.9561 13.3765 8.67052 13.4948 8.37275 13.4948C8.07498 13.4948 7.7894 13.3765 7.57885 13.1659C7.36829 12.9553 7.25 12.6698 7.25 12.372C7.25 12.0742 7.36829 11.7887 7.57885 11.5781C7.7894 11.3675 8.07498 11.2492 8.37275 11.2492C8.67052 11.2492 8.9561 11.3675 9.16665 11.5781C9.37721 11.7887 9.4955 12.0742 9.4955 12.372ZM9.4955 16.122C9.4955 16.4198 9.37721 16.7053 9.16665 16.9159C8.9561 17.1265 8.67052 17.2448 8.37275 17.2448C8.07498 17.2448 7.7894 17.1265 7.57885 16.9159C7.36829 16.7053 7.25 16.4198 7.25 16.122C7.25 15.8242 7.36829 15.5387 7.57885 15.3281C7.7894 15.1175 8.07498 14.9993 8.37275 14.9993C8.67052 14.9993 8.9561 15.1175 9.16665 15.3281C9.37721 15.5387 9.4955 15.8242 9.4955 16.122ZM13.6235 12.372C13.6235 12.6698 13.5052 12.9553 13.2947 13.1659C13.0841 13.3765 12.7985 13.4948 12.5007 13.4948C12.203 13.4948 11.9174 13.3765 11.7068 13.1659C11.4963 12.9553 11.378 12.6698 11.378 12.372C11.378 12.0742 11.4963 11.7887 11.7068 11.5781C11.9174 11.3675 12.203 11.2492 12.5007 11.2492C12.7985 11.2492 13.0841 11.3675 13.2947 11.5781C13.5052 11.7887 13.6235 12.0742 13.6235 12.372ZM13.6235 16.122C13.6235 16.4198 13.5052 16.7053 13.2947 16.9159C13.0841 17.1265 12.7985 17.2448 12.5007 17.2448C12.203 17.2448 11.9174 17.1265 11.7068 16.9159C11.4963 16.7053 11.378 16.4198 11.378 16.122C11.378 15.8242 11.4963 15.5387 11.7068 15.3281C11.9174 15.1175 12.203 14.9993 12.5007 14.9993C12.7985 14.9993 13.0841 15.1175 13.2947 15.3281C13.5052 15.5387 13.6235 15.8242 13.6235 16.122ZM17.7455 12.372C17.7455 12.6698 17.6272 12.9553 17.4167 13.1659C17.2061 13.3765 16.9205 13.4948 16.6227 13.4948C16.325 13.4948 16.0394 13.3765 15.8288 13.1659C15.6183 12.9553 15.5 12.6698 15.5 12.372C15.5 12.0742 15.6183 11.7887 15.8288 11.5781C16.0394 11.3675 16.325 11.2492 16.6227 11.2492C16.9205 11.2492 17.2061 11.3675 17.4167 11.5781C17.6272 11.7887 17.7455 12.0742 17.7455 12.372ZM21.5 6.75C21.5 5.75544 21.1049 4.80161 20.4016 4.09835C19.6984 3.39509 18.7446 3 17.75 3H7.25C6.25544 3 5.30161 3.39509 4.59835 4.09835C3.89509 4.80161 3.5 5.75544 3.5 6.75V7.5H21.5V6.75Z" fill="#45454A"/>
</svg>
