<?xml version="1.0" encoding="UTF-8"?>
<svg id="Layer_1" xmlns="http://www.w3.org/2000/svg" version="1.1" viewBox="0 0 600 1000">
  <!-- Generator: Adobe Illustrator 29.7.1, SVG Export Plug-In . SVG Version: 2.1.1 Build 8)  -->
  <defs>
    <style>
      .st0 {
        fill: #866887;
      }

      .st1 {
        fill: #b7ceb6;
      }

      .st2, .st3 {
        fill: #613548;
      }

      .st4 {
        fill: #9fbfaf;
      }

      .st5 {
        fill: #3b6b58;
      }

      .st3 {
        font-family: SUIT-Bold, SUIT;
        font-size: 151.1px;
        font-weight: 700;
      }
    </style>
  </defs>
  <rect class="st4" x=".3" y="0" width="600" height="1000.7"/>
  <path class="st0" d="M218.7,598.8c0,131.8-66.5,238.7-148.5,238.7s-49.3-10.2-70.2-28.3v-420.7c20.9-18.1,44.8-28.3,70.2-28.3,82,0,148.5,106.9,148.5,238.7Z"/>
  <polygon class="st1" points="357.7 852.3 250.7 850.1 157.1 902.1 126.2 799.6 47.8 726.6 135.7 665.5 180.8 568.5 266.1 633.2 372.4 646.1 337.2 747.2 357.7 852.3"/>
  <polygon class="st5" points="600 0 600 311.5 367.7 311.5 436 0 600 0"/>
  <g>
    <g>
      <path class="st2" d="M88.5,300.5l-1,17.7c4.2-7.1,9.4-12.4,15.6-15.9,6.1-3.5,13.2-5.3,21.2-5.3s18.2,2.4,24.6,7.1c6.4,4.7,10.5,10.7,12.3,17.9,1.8,7.2,2.8,19.2,2.8,36v134.7h-58.5v-133.1c0-13.2-.4-21.3-1.3-24.2-.9-2.9-3.3-4.3-7.2-4.3s-6.8,1.7-7.8,5c-1.1,3.3-1.6,12.2-1.6,26.7v129.9H29v-192.2h59.5Z"/>
      <path class="st2" d="M418.4,311.3h-75.7v41.6c0,8.7.6,14.3,1.9,16.8,1.3,2.5,3.7,3.8,7.2,3.8s7.4-1.7,8.9-5c1.5-3.3,2.2-9.8,2.2-19.3v-25.3h55.5v14.2c0,11.9-.7,21-2.2,27.4-1.5,6.4-5,13.2-10.5,20.4-5.5,7.2-12.5,12.7-20.9,16.3-8.5,3.6-19,5.4-31.8,5.4s-23.3-1.8-32.7-5.4c-9.5-3.6-16.8-8.5-22.1-14.7-5.3-6.2-8.9-13.1-10.9-20.6-2-7.5-3-18.4-3-32.7v-56c0-16.8,2.3-30.1,6.8-39.8,4.5-9.7,12-17.1,22.3-22.3s22.2-7.7,35.6-7.7,30,3.1,40.6,9.3c10.7,6.2,18.2,14.5,22.4,24.8,4.3,10.3,6.4,24.7,6.4,43.4v25.5ZM359.8,280v-14c0-9.9-.5-16.4-1.6-19.3-1.1-2.9-3.2-4.3-6.5-4.3s-6.6,1.2-7.5,3.7c-1,2.5-1.4,9.1-1.4,19.9v14h17.1Z"/>
      <path class="st2" d="M525,323.8l-16.7,139c-2.6,22-4.9,37-6.6,45-1.8,8-4.8,14.6-8.9,19.8-4.1,5.2-9.9,9.1-17.3,11.5-7.4,2.5-19.2,3.7-35.4,3.7h-35.5v-30.7c9.1,0,14.9-.5,17.6-1.4,2.6-.9,3.9-3,3.9-6.2s-1.2-8.3-3.6-20.1l-32-160.8h53.1l19.2,129.8,9.4-129.8h52.9Z"/>
      <g>
        <circle class="st2" cx="232.3" cy="434.3" r="13.6"/>
        <path class="st2" d="M232.3,396.5c-20.9,0-37.9,17-37.9,37.9s2.7,15.9,7.2,22.1c9.1,5,19.6,7.9,30.7,7.9s21.6-2.9,30.7-7.9c4.5-6.2,7.2-13.8,7.2-22.1,0-20.9-17-37.9-37.9-37.9ZM232.3,459.1c-13.7,0-24.8-11.1-24.8-24.8s11.1-24.8,24.8-24.8,24.8,11.1,24.8,24.8-11.1,24.8-24.8,24.8Z"/>
        <path class="st2" d="M291.7,424.1c-4.9-28.4-29.6-50-59.4-50s-54.5,21.6-59.4,50c3.1,7.7,7.7,14.7,13.4,20.6-.8-3.3-1.2-6.8-1.2-10.4,0-26,21.2-47.2,47.2-47.2s47.2,21.2,47.2,47.2-.4,7-1.2,10.4c5.7-5.9,10.3-12.9,13.4-20.6Z"/>
        <path class="st2" d="M232.3,307.9c-51,0-92.4,41.4-92.4,92.4s2.8,25.6,7.7,36.9c5,11.4,12.2,21.6,21.1,30,10.8,10.3,24.2,18,39,22.1,7.9,2.2,16.1,3.4,24.7,3.4s16.8-1.2,24.7-3.4c14.8-4.1,28.2-11.8,39-22.2h0c8.9-8.5,16.1-18.6,21-30,4.9-11.3,7.7-23.8,7.7-36.9,0-51-41.5-92.4-92.4-92.4ZM296.2,402c-.2,7.8-1.8,15.2-4.6,22-3.1,7.7-7.6,14.7-13.4,20.6-4.5,4.6-9.6,8.6-15.3,11.7-9.1,5-19.6,7.9-30.7,7.9s-21.6-2.9-30.7-7.9c-5.7-3.1-10.9-7.1-15.3-11.8-5.7-5.9-10.3-12.9-13.4-20.6-2.8-6.8-4.3-14.2-4.5-22,0-.6,0-1.2,0-1.7,0-10.2,2.4-19.7,6.6-28.3,10.4-21.1,32.2-35.7,57.4-35.7s47,14.6,57.4,35.8c4.2,8.5,6.6,18.1,6.6,28.2s0,1.2,0,1.7Z"/>
        <path class="st2" d="M289.7,372.1c-15.1-14-35.3-22.5-57.4-22.5s-42.3,8.5-57.4,22.4c-4.2,8.5-6.6,18.1-6.6,28.3s0,1.2,0,1.7c11.8-23.3,36.1-39.4,64-39.4s52.1,16,64,39.4c0-.6,0-1.2,0-1.7,0-10.1-2.4-19.7-6.6-28.2Z"/>
      </g>
    </g>
    <text class="st3" transform="translate(194.4 769.6)"><tspan x="0" y="0">index</tspan></text>
  </g>
</svg>