<?xml version="1.0" encoding="UTF-8"?>
<svg id="Layer_2" data-name="Layer 2" xmlns="http://www.w3.org/2000/svg" viewBox="0 0 84.6 84.6">
  <g id="Layer_1-2" data-name="Layer 1">
    <g>
      <circle cx="42.3" cy="57.88" r="6.23"/>
      <path d="M42.3,40.54c-9.56,0-17.34,7.78-17.34,17.34,0,3.78,1.22,7.27,3.28,10.12,4.18,2.29,8.97,3.6,14.06,3.6s9.88-1.31,14.06-3.61c2.07-2.85,3.28-6.34,3.28-10.11,0-9.56-7.78-17.34-17.34-17.34ZM42.3,69.22c-6.26,0-11.34-5.08-11.34-11.34s5.08-11.34,11.34-11.34,11.34,5.09,11.34,11.34-5.09,11.34-11.34,11.34Z"/>
      <path d="M69.49,53.18c-2.23-12.99-13.57-22.9-27.19-22.9s-24.97,9.91-27.2,22.89c1.41,3.54,3.51,6.75,6.12,9.45-.35-1.53-.53-3.11-.53-4.74,0-11.91,9.69-21.6,21.61-21.6s21.6,9.69,21.6,21.6c0,1.63-.18,3.22-.53,4.75,2.62-2.7,4.71-5.91,6.12-9.45Z"/>
      <path d="M42.3,0C18.97,0,0,18.97,0,42.3c0,6,1.26,11.71,3.52,16.89,2.28,5.21,5.57,9.88,9.64,13.74,4.96,4.72,11.06,8.25,17.84,10.13,3.6,1.01,7.39,1.54,11.3,1.54s7.7-.54,11.3-1.54c6.79-1.88,12.89-5.42,17.85-10.15h.01c4.06-3.87,7.35-8.53,9.62-13.73,2.26-5.17,3.52-10.88,3.52-16.88C84.6,18.97,65.62,0,42.3,0ZM71.58,43.1c-.09,3.55-.82,6.95-2.09,10.08-1.41,3.54-3.5,6.75-6.12,9.45-2.04,2.12-4.4,3.94-7.01,5.36-4.18,2.3-8.97,3.61-14.06,3.61s-9.88-1.31-14.06-3.6c-2.61-1.43-4.98-3.25-7.02-5.38-2.61-2.7-4.71-5.91-6.12-9.45-1.26-3.13-1.99-6.52-2.08-10.07-.02-.26-.02-.53-.02-.8,0-4.65,1.09-9.04,3.03-12.95,4.77-9.68,14.76-16.35,26.27-16.35s21.51,6.68,26.28,16.37c1.94,3.9,3.02,8.29,3.02,12.93,0,.27,0,.54-.02.8Z"/>
      <path d="M68.58,29.37c-6.92-6.39-16.15-10.29-26.28-10.29s-19.35,3.89-26.27,10.27c-1.94,3.91-3.03,8.3-3.03,12.95,0,.27,0,.54.02.8,5.42-10.68,16.51-18.02,29.28-18.02s23.86,7.34,29.28,18.02c.02-.26.02-.53.02-.8,0-4.64-1.08-9.03-3.02-12.93Z"/>
    </g>
  </g>
</svg>