<?xml version="1.0" encoding="UTF-8"?>
<svg id="Layer_2" data-name="Layer 2" xmlns="http://www.w3.org/2000/svg" viewBox="0 0 105.37 105.35">
  <defs>
    <style>
      .cls-1 {
        fill: #2a171f;
        font-family: SUIT-Medium, SUIT;
        font-size: 12px;
        font-weight: 500;
      }
    </style>
  </defs>
  <g id="Layer_2-2" data-name="Layer 2">
    <text class="cls-1" transform="translate(61.83 11.02) rotate(19.45)"><tspan x="0" y="0">M</tspan></text>
    <text class="cls-1" transform="translate(71.41 14.56) rotate(31.07)"><tspan x="0" y="0">E</tspan></text>
    <text class="cls-1" transform="translate(77.41 18.08) rotate(41.46)"><tspan x="0" y="0">N</tspan></text>
    <text class="cls-1" transform="translate(83.68 23.57) rotate(52.57)"><tspan x="0" y="0">U</tspan></text>
    <text class="cls-1" transform="translate(88.59 30.26) rotate(59.86)"><tspan x="0" y="0"> </tspan></text>
    <text class="cls-1" transform="translate(89.92 32.55) rotate(63.45)"><tspan x="0" y="0"> </tspan></text>
    <text class="cls-1" transform="translate(91.1 34.9) rotate(67.03)"><tspan x="0" y="0"> </tspan></text>
    <text class="cls-1" transform="translate(92.14 37.34) rotate(70.64)"><tspan x="0" y="0"> </tspan></text>
    <text class="cls-1" transform="translate(93.25 39.58) rotate(79.24)"><tspan x="0" y="0">M</tspan></text>
    <text class="cls-1" transform="translate(95.03 49.63) rotate(90.93)"><tspan x="0" y="0">E</tspan></text>
    <text class="cls-1" transform="translate(95.02 56.57) rotate(101.07)"><tspan x="0" y="0">N</tspan></text>
    <text class="cls-1" transform="translate(93.45 64.75) rotate(112.31)"><tspan x="0" y="0">U</tspan></text>
    <text class="cls-1" transform="translate(90.14 72.38) rotate(119.68)"><tspan x="0" y="0"> </tspan></text>
    <text class="cls-1" transform="translate(88.84 74.66) rotate(123.22)"><tspan x="0" y="0"> </tspan></text>
    <text class="cls-1" transform="translate(87.4 76.87) rotate(126.79)"><tspan x="0" y="0"> </tspan></text>
    <text class="cls-1" transform="translate(85.83 78.98) rotate(130.34)"><tspan x="0" y="0"> </tspan></text>
    <text class="cls-1" transform="translate(84.43 81.1) rotate(138.88)"><tspan x="0" y="0">M</tspan></text>
    <text class="cls-1" transform="translate(76.65 87.7) rotate(150.4)"><tspan x="0" y="0">E</tspan></text>
    <text class="cls-1" transform="translate(70.66 91.21) rotate(160.86)"><tspan x="0" y="0">N</tspan></text>
    <text class="cls-1" transform="translate(62.8 93.97) rotate(172.08)"><tspan x="0" y="0">U</tspan></text>
    <text class="cls-1" transform="translate(54.54 94.94) rotate(179.07)"><tspan x="0" y="0"> </tspan></text>
    <text class="cls-1" transform="translate(51.91 94.98) rotate(-177.14)"><tspan x="0" y="0"> </tspan></text>
    <text class="cls-1" transform="translate(49.28 94.85) rotate(-173.59)"><tspan x="0" y="0"> </tspan></text>
    <text class="cls-1" transform="translate(46.65 94.56) rotate(-170.01)"><tspan x="0" y="0"> </tspan></text>
    <text class="cls-1" transform="translate(44.14 94.44) rotate(-161.39)"><tspan x="0" y="0">M</tspan></text>
    <text class="cls-1" transform="translate(34.52 91.05) rotate(-149.8)"><tspan x="0" y="0">E</tspan></text>
    <text class="cls-1" transform="translate(28.46 87.62) rotate(-139.4)"><tspan x="0" y="0">N</tspan></text>
    <text class="cls-1" transform="translate(22.11 82.22) rotate(-128.29)"><tspan x="0" y="0">U</tspan></text>
    <text class="cls-1" transform="translate(17.1 75.59) rotate(-120.98)"><tspan x="0" y="0"> </tspan></text>
    <text class="cls-1" transform="translate(15.74 73.35) rotate(-117.43)"><tspan x="0" y="0"> </tspan></text>
    <text class="cls-1" transform="translate(14.53 71.01) rotate(-113.85)"><tspan x="0" y="0"> </tspan></text>
    <text class="cls-1" transform="translate(13.46 68.6) rotate(-110.24)"><tspan x="0" y="0"> </tspan></text>
    <text class="cls-1" transform="translate(12.3 66.35) rotate(-101.61)"><tspan x="0" y="0">M</tspan></text>
    <text class="cls-1" transform="translate(10.44 56.35) rotate(-90.93)"><tspan x="0" y="0">E</tspan></text>
    <text class="cls-1" transform="translate(10.28 49.39) rotate(-79.78)"><tspan x="0" y="0">N</tspan></text>
    <text class="cls-1" transform="translate(11.73 41.19) rotate(-68.55)"><tspan x="0" y="0">U</tspan></text>
    <text class="cls-1" transform="translate(14.93 33.52) rotate(-61.18)"><tspan x="0" y="0"> </tspan></text>
    <text class="cls-1" transform="translate(16.2 31.19) rotate(-57.59)"><tspan x="0" y="0"> </tspan></text>
    <text class="cls-1" transform="translate(17.6 28.99) rotate(-54.07)"><tspan x="0" y="0"> </tspan></text>
    <text class="cls-1" transform="translate(19.14 26.85) rotate(-50.51)"><tspan x="0" y="0"> </tspan></text>
    <text class="cls-1" transform="translate(20.51 24.71) rotate(-41.97)"><tspan x="0" y="0">M</tspan></text>
    <text class="cls-1" transform="translate(28.18 17.99) rotate(-30.46)"><tspan x="0" y="0">E</tspan></text>
    <text class="cls-1" transform="translate(34.11 14.4) rotate(-20.02)"><tspan x="0" y="0">N</tspan></text>
    <text class="cls-1" transform="translate(41.94 11.52) rotate(-8.78)"><tspan x="0" y="0">U</tspan></text>
    <text class="cls-1" transform="translate(50.17 10.42) rotate(-1.5)"><tspan x="0" y="0"> </tspan></text>
    <text class="cls-1" transform="translate(52.8 10.34) rotate(1.99)"><tspan x="0" y="0"> </tspan></text>
    <text class="cls-1" transform="translate(55.45 10.43) rotate(5.55)"><tspan x="0" y="0"> </tspan></text>
    <text class="cls-1" transform="translate(58.09 10.68) rotate(9.14)"><tspan x="0" y="0"> </tspan></text>
  </g>
</svg>