<?xml version="1.0" encoding="UTF-8"?>
<svg id="Layer_2" data-name="Layer 2" xmlns="http://www.w3.org/2000/svg" viewBox="0 0 250.53 114.91">
  <g id="Layer_1-2" data-name="Layer 1">
    <g>
      <path d="M27.25,1.59l-.46,8.11c1.94-3.23,4.32-5.66,7.13-7.27,2.81-1.62,6.04-2.42,9.71-2.42,4.6,0,8.36,1.08,11.27,3.25,2.92,2.17,4.8,4.9,5.64,8.19.84,3.29,1.26,8.79,1.26,16.48v61.67h-26.79V28.65c0-6.06-.2-9.75-.6-11.07-.4-1.33-1.5-1.99-3.32-1.99-1.9,0-3.09.76-3.58,2.29-.49,1.52-.73,5.6-.73,12.23v59.48H0V1.59h27.25Z"/>
      <path d="M198.35,47.15h-34.68v19.03c0,3.98.29,6.54.86,7.69.57,1.15,1.68,1.72,3.32,1.72,2.03,0,3.39-.76,4.08-2.29.69-1.52,1.03-4.48,1.03-8.85v-11.6h25.4v6.5c0,5.44-.34,9.62-1.03,12.53-.69,2.92-2.29,6.03-4.81,9.35-2.52,3.32-5.71,5.8-9.58,7.46-3.87,1.66-8.72,2.49-14.56,2.49s-10.65-.82-14.99-2.45c-4.33-1.63-7.7-3.88-10.11-6.73-2.41-2.85-4.08-5.99-5.01-9.42-.93-3.42-1.39-8.41-1.39-14.95v-25.66c0-7.69,1.04-13.76,3.12-18.2,2.08-4.44,5.48-7.85,10.21-10.21s10.17-3.55,16.31-3.55c7.51,0,13.71,1.43,18.6,4.28,4.88,2.85,8.31,6.63,10.28,11.34,1.97,4.71,2.95,11.33,2.95,19.86v11.67ZM171.49,32.82v-6.43c0-4.55-.24-7.49-.73-8.82-.49-1.33-1.48-1.99-2.98-1.99-1.86,0-3.01.56-3.45,1.69-.44,1.13-.66,4.17-.66,9.12v6.43h7.82Z"/>
      <path d="M250.53,14.58l-7.66,63.66c-1.21,10.08-2.23,16.95-3.04,20.62-.82,3.67-2.18,6.7-4.08,9.08-1.9,2.39-4.54,4.14-7.92,5.27-3.38,1.13-8.78,1.69-16.21,1.69h-16.24v-14.06c4.16,0,6.84-.21,8.04-.63,1.2-.42,1.79-1.36,1.79-2.82,0-.71-.55-3.78-1.66-9.22l-14.67-73.6h24.32l8.8,59.41,4.29-59.41h24.24Z"/>
      <g>
        <circle cx="97.65" cy="82.09" r="6.23"/>
        <path d="M97.66,64.74c-9.56,0-17.34,7.78-17.34,17.34,0,3.78,1.22,7.27,3.28,10.12,4.18,2.29,8.97,3.6,14.06,3.6s9.88-1.31,14.06-3.61c2.07-2.85,3.28-6.34,3.28-10.11,0-9.56-7.78-17.34-17.34-17.34ZM97.66,93.42c-6.26,0-11.34-5.08-11.34-11.34s5.08-11.34,11.34-11.34,11.34,5.09,11.34,11.34-5.09,11.34-11.34,11.34Z"/>
        <path d="M124.85,77.38c-2.23-12.99-13.57-22.9-27.19-22.9s-24.97,9.91-27.2,22.89c1.41,3.54,3.51,6.75,6.12,9.45-.35-1.53-.53-3.11-.53-4.74,0-11.91,9.69-21.6,21.61-21.6s21.6,9.69,21.6,21.6c0,1.63-.18,3.22-.53,4.75,2.62-2.7,4.71-5.91,6.12-9.45Z"/>
        <path d="M97.66,24.2c-23.33,0-42.3,18.97-42.3,42.3,0,6,1.26,11.71,3.52,16.89,2.28,5.21,5.57,9.88,9.64,13.74,4.96,4.72,11.06,8.25,17.84,10.13,3.6,1.01,7.39,1.54,11.3,1.54s7.7-.54,11.3-1.54c6.79-1.88,12.89-5.42,17.85-10.15h.01c4.06-3.87,7.35-8.53,9.62-13.73,2.26-5.17,3.52-10.88,3.52-16.88,0-23.33-18.98-42.3-42.3-42.3ZM126.94,67.3c-.09,3.55-.82,6.95-2.09,10.08-1.41,3.54-3.5,6.75-6.12,9.45-2.04,2.12-4.4,3.94-7.01,5.36-4.18,2.3-8.97,3.61-14.06,3.61s-9.88-1.31-14.06-3.6c-2.61-1.43-4.98-3.25-7.02-5.38-2.61-2.7-4.71-5.91-6.12-9.45-1.26-3.13-1.99-6.52-2.08-10.07-.02-.26-.02-.53-.02-.8,0-4.65,1.09-9.04,3.03-12.95,4.77-9.68,14.76-16.35,26.27-16.35s21.51,6.68,26.28,16.37c1.94,3.9,3.02,8.29,3.02,12.93,0,.27,0,.54-.02.8Z"/>
        <path d="M123.94,53.57c-6.92-6.39-16.15-10.29-26.28-10.29s-19.35,3.89-26.27,10.27c-1.94,3.91-3.03,8.3-3.03,12.95,0,.27,0,.54.02.8,5.42-10.68,16.51-18.02,29.28-18.02s23.86,7.34,29.28,18.02c.02-.26.02-.53.02-.8,0-4.64-1.08-9.03-3.02-12.93Z"/>
      </g>
    </g>
  </g>
</svg>