<?xml version="1.0" encoding="UTF-8"?>
<svg id="Layer_2" xmlns="http://www.w3.org/2000/svg" version="1.1" viewBox="0 0 250.5 114.9">
  <!-- Generator: Adobe Illustrator 29.7.1, SVG Export Plug-In . SVG Version: 2.1.1 Build 8)  -->
  <defs>
    <style>
      .st0 {
        fill: #2a171f;
      }
    </style>
  </defs>
  <g id="Layer_1-2">
    <g>
      <circle class="st0" cx="97.7" cy="82.1" r="6.2"/>
      <path class="st0" d="M226.3,14.6l-4.3,59.4-8.8-59.4h-18.3c-2-4.2-5.3-7.6-9.8-10.3C180.2,1.4,174,0,166.5,0s-11.6,1.2-16.3,3.6c-4.7,2.4-8.1,5.8-10.2,10.2s-3.1,10.5-3.1,18.2v18.7c-6.3-15.5-21.5-26.5-39.2-26.5s-28.4,8-35.9,19.9v-16.2c0-7.7-.4-13.2-1.3-16.5-.8-3.3-2.7-6-5.6-8.2C52,1.1,48.2,0,43.6,0s-6.9.8-9.7,2.4c-2.8,1.6-5.2,4-7.1,7.3l.5-8.1H0v88h26.8V30.1c0-6.6.2-10.7.7-12.2.5-1.5,1.7-2.3,3.6-2.3s2.9.7,3.3,2c.4,1.3.6,5,.6,11.1v61h26.8v-.7c1.9,3,4.2,5.8,6.7,8.2,5,4.7,11.1,8.2,17.8,10.1,3.6,1,7.4,1.5,11.3,1.5s7.7-.5,11.3-1.5c6.8-1.9,12.9-5.4,17.8-10.1h0c4.1-3.9,7.3-8.5,9.6-13.7,1.2-2.6,2-5.4,2.7-8.3,1,2.5,2.4,4.8,4.2,6.9,2.4,2.9,5.8,5.1,10.1,6.7,4.3,1.6,9.1,2.5,15,2.5s10.7-.8,14.6-2.5c3.9-1.7,7.1-4.1,9.6-7.5,2.5-3.3,4.1-6.4,4.8-9.4.6-2.4.9-5.7,1-9.9l5.2,26.2c1.1,5.4,1.7,8.5,1.7,9.2,0,1.5-.6,2.4-1.8,2.8s-3.9.6-8,.6v14.1h16.2c7.4,0,12.8-.6,16.2-1.7s6-2.9,7.9-5.3c1.9-2.4,3.3-5.4,4.1-9.1.8-3.7,1.8-10.5,3-20.6l7.7-63.7h0s-24.2,0-24.2,0ZM97.7,37.2c11.5,0,21.5,6.7,26.3,16.4-6.9-6.4-16.2-10.3-26.3-10.3s-19.3,3.9-26.3,10.3c4.8-9.7,14.8-16.4,26.3-16.4ZM97.7,93.4c-6.3,0-11.3-5.1-11.3-11.3s5.1-11.3,11.3-11.3,11.3,5.1,11.3,11.3-5.1,11.3-11.3,11.3ZM118.7,86.8c-2,2.1-4.4,3.9-7,5.4,2.1-2.8,3.3-6.3,3.3-10.1,0-9.6-7.8-17.3-17.3-17.3s-17.3,7.8-17.3,17.3,1.2,7.3,3.3,10.1c-2.6-1.4-5-3.2-7-5.4-.4-1.5-.5-3.1-.5-4.7,0-11.9,9.7-21.6,21.6-21.6s21.6,9.7,21.6,21.6-.2,3.2-.5,4.8ZM124.8,77.4c-2.2-13-13.6-22.9-27.2-22.9s-25,9.9-27.2,22.9c-1.3-3.1-2-6.5-2.1-10.1,5.4-10.7,16.5-18,29.3-18s23.9,7.3,29.3,18c0,3.5-.8,6.9-2.1,10.1ZM163.7,26.4c0-5,.2-8,.7-9.1s1.6-1.7,3.5-1.7,2.5.7,3,2c.5,1.3.7,4.3.7,8.8v6.4h-7.8v-6.4ZM173,52.9v11.6c0,4.4-.3,7.3-1,8.9-.7,1.5-2,2.3-4.1,2.3s-2.8-.6-3.3-1.7c-.6-1.2-.9-3.7-.9-7.7v-19h31.7l1.1,5.7h-23.5Z"/>
    </g>
  </g>
</svg>